<svg version="1.1" id="Layer_1" xmlns="http://www.w3.org/2000/svg" xmlns:xlink="http://www.w3.org/1999/xlink" x="0px" y="0px"
	 width="100%" viewBox="0 0 1024 1024" enable-background="new 0 0 1024 1024" xml:space="preserve">
<path fill="#000000" opacity="1.000000" stroke="none" 
	d="
M465.776123,699.900146 
	C451.899139,705.966919 438.264648,711.574646 423.850800,714.554871 
	C422.161865,712.120117 422.750000,709.889099 422.748505,707.798340 
	C422.709473,653.803467 422.719666,599.808655 422.707672,545.813782 
	C422.705811,537.410950 422.670135,537.389648 414.443329,537.389099 
	C371.614075,537.386230 328.784790,537.388123 285.955536,537.399597 
	C279.366791,537.401367 279.346130,537.428406 279.343903,544.150085 
	C279.324585,602.144592 279.314941,660.139038 279.297455,718.133545 
	C279.295258,725.382751 279.281891,725.389648 271.872772,725.390869 
	C244.875336,725.395447 217.877167,725.294312 190.881165,725.492065 
	C186.182648,725.526428 184.578415,724.309082 184.582535,719.388916 
	C184.699753,579.068970 184.698486,438.748901 184.574875,298.428986 
	C184.570587,293.570801 186.397888,292.613434 190.716034,292.635834 
	C218.212708,292.778290 245.711182,292.818298 273.207184,292.623962 
	C278.007111,292.590027 279.455688,294.021088 279.441040,298.840607 
	C279.288361,349.002075 279.346375,399.164154 279.350861,449.326080 
	C279.351471,456.371796 279.561127,456.630707 286.656921,456.633728 
	C330.152802,456.652313 373.648682,456.647308 417.144562,456.632812 
	C423.621429,456.630646 423.643982,456.588287 423.644531,449.765869 
	C423.648560,399.770630 423.640594,349.775360 423.642853,299.780121 
	C423.643188,292.745880 423.659424,292.755646 430.806549,292.755707 
	C455.970825,292.755859 481.135071,292.745026 506.299347,292.746857 
	C513.056824,292.747345 513.114441,292.772522 513.118774,299.286987 
	C513.201538,422.941772 513.256470,546.596558 513.422974,670.251221 
	C513.428101,674.056274 512.345764,676.257629 508.912628,678.115479 
	C494.847748,685.727234 480.689178,693.133545 465.776123,699.900146 
z"/>
<path fill="#000000" opacity="1.000000" stroke="none" 
	d="
M665.011780,542.070679 
	C689.261658,505.411011 708.312988,466.315735 727.748047,427.431702 
	C749.418701,384.074982 771.097595,340.722290 792.647522,297.305603 
	C794.389343,293.796387 796.547424,292.643646 800.396301,292.664307 
	C828.226990,292.813721 856.058899,292.734680 883.890381,292.741425 
	C885.517700,292.741821 887.199280,292.529388 888.597656,293.323639 
	C889.401001,294.994385 888.390625,296.060669 887.769470,297.182800 
	C861.958496,343.810242 837.209412,391.006104 812.165649,438.045807 
	C788.611755,482.287140 765.898682,526.987305 740.624756,570.301208 
	C724.519592,597.901978 704.786560,622.819763 683.963867,646.910461 
	C667.351135,666.130554 649.265137,683.828674 627.903625,697.812744 
	C600.407043,715.813049 570.773865,727.132751 537.410828,728.603210 
	C504.735718,730.043335 472.134125,728.930847 439.504028,728.177917 
	C434.734985,728.067932 429.979614,727.365417 424.285736,726.853210 
	C527.749756,694.700928 605.197632,630.124695 665.011780,542.070679 
z"/>
<path fill="#000000" opacity="1.000000" stroke="none" 
	d="
M686.729248,484.637756 
	C677.757446,501.950684 667.596802,518.100769 656.533630,534.778931 
	C615.660461,454.018829 575.197815,374.069855 534.813660,294.275909 
	C536.426147,292.251160 538.217529,292.777161 539.776001,292.774841 
	C567.099304,292.734100 594.423096,292.811493 621.745667,292.664276 
	C625.512207,292.644012 627.332275,294.100220 628.909058,297.354492 
	C652.214172,345.454498 675.542542,393.543884 699.140564,441.500458 
	C702.484985,448.297150 703.384277,454.014130 699.099670,460.835358 
	C694.424866,468.277985 690.929993,476.461731 686.729248,484.637756 
z"/>
</svg>